<?xml version="1.0" standalone="no"?>
<!DOCTYPE svg PUBLIC "-//W3C//DTD SVG 20010904//EN"
 "http://www.w3.org/TR/2001/REC-SVG-20010904/DTD/svg10.dtd">
<svg version="1.0" xmlns="http://www.w3.org/2000/svg"
 width="512.000000pt" height="512.000000pt" viewBox="0 0 512.000000 512.000000"
 preserveAspectRatio="xMidYMid meet">

<g transform="translate(0.000000,512.000000) scale(0.100000,-0.100000)"
fill="#000000" stroke="none">
<path d="M2300 4405 c-352 -49 -692 -203 -985 -446 -268 -223 -492 -557 -609
-910 -72 -215 -81 -273 -81 -509 1 -173 4 -220 23 -305 92 -423 325 -818 672
-1141 443 -414 1057 -575 1685 -443 290 61 628 235 846 435 453 417 711 1018
668 1556 -19 242 -68 416 -179 643 -107 218 -210 365 -374 533 -321 330 -701
525 -1145 586 -134 19 -386 19 -521 1z m523 -81 c144 -21 335 -73 455 -125
357 -152 701 -452 898 -783 178 -299 250 -527 261 -832 20 -552 -193 -1073
-595 -1456 -338 -320 -776 -488 -1277 -489 -254 -1 -472 42 -708 141 -433 180
-826 574 -1008 1010 -33 78 -87 279 -116 435 -25 132 -25 497 0 615 61 287
232 625 430 851 194 222 429 394 689 506 112 48 317 107 428 122 41 6 86 13
100 15 74 10 342 4 443 -10z"/>
<path d="M2307 4305 c-197 -32 -440 -111 -587 -191 -239 -131 -470 -332 -628
-546 -274 -373 -400 -779 -363 -1168 14 -152 65 -402 106 -520 109 -319 375
-668 665 -872 208 -146 481 -261 737 -310 167 -32 480 -32 663 -1 236 41 429
112 624 228 139 83 195 126 325 250 304 292 494 656 553 1062 16 113 16 446
-1 543 -44 264 -197 590 -387 826 -104 129 -181 207 -304 304 -259 206 -472
309 -768 371 -130 28 -170 32 -347 35 -140 2 -226 -1 -288 -11z m186 -31 c-1
-6 -4 -35 -7 -65 l-6 -54 23 65 c20 56 27 65 50 68 18 2 27 -1 27 -10 0 -14
-86 -248 -94 -256 -10 -9 -25 11 -42 54 l-18 46 -23 -53 c-14 -31 -27 -49 -32
-43 -14 14 -89 218 -84 227 2 4 15 7 27 7 19 0 26 -8 36 -45 16 -57 24 -50 21
15 -2 44 0 50 18 50 12 0 27 -12 35 -27 l15 -28 1 26 c0 14 3 29 7 33 11 10
48 2 46 -10z m239 -49 c-1 -22 -6 -74 -10 -115 -7 -71 -8 -75 -32 -75 -14 0
-25 5 -25 10 1 38 17 193 21 208 4 12 13 17 27 15 19 -3 22 -9 19 -43z m271
-12 c79 -22 76 -38 -23 -105 -43 -29 -79 -56 -80 -59 0 -4 32 -18 72 -31 73
-24 84 -33 69 -57 -7 -11 -19 -10 -72 8 -35 11 -88 26 -116 32 -88 18 -86 21
46 113 39 27 71 52 71 56 0 4 -19 11 -42 14 -55 8 -73 20 -64 41 7 19 34 17
139 -12z m-1008 -133 c16 -49 30 -90 31 -90 1 0 21 9 45 19 48 22 59 20 59
-12 0 -17 -11 -26 -53 -40 -88 -32 -84 -35 -127 86 -34 96 -36 108 -21 117 31
18 37 10 66 -80z m1326 -90 c-1 -80 -6 -148 -10 -152 -4 -4 -17 -1 -29 8 -16
11 -22 24 -20 42 2 22 -4 30 -39 50 l-42 23 -16 -25 c-14 -22 -20 -23 -46 -14
-16 5 -29 13 -29 16 0 15 206 201 220 199 13 -2 14 -24 11 -147z m-1489 -11
c51 -38 94 -73 96 -77 4 -12 -52 -32 -75 -26 -26 7 -72 -23 -73 -48 0 -15 -57
-65 -65 -57 -2 2 -8 60 -13 129 -14 179 -8 183 130 79z m1001 -13 c269 -49
567 -200 752 -382 64 -64 162 -181 212 -254 120 -177 243 -525 243 -688 0 -84
-4 -82 136 -82 76 0 124 -4 124 -10 0 -6 -48 -10 -123 -10 -147 0 -151 3 -161
100 -21 215 -125 497 -250 680 -211 308 -492 504 -851 594 -150 37 -263 49
-410 43 -409 -17 -754 -181 -1033 -490 -221 -245 -315 -462 -377 -868 -8 -51
-32 -59 -187 -59 -176 0 -157 18 22 22 l135 3 7 35 c4 19 12 78 18 130 26 207
132 470 256 633 91 121 251 279 359 356 95 66 288 165 390 199 70 24 193 50
292 62 96 12 342 4 446 -14z m805 -58 c28 -21 52 -42 52 -47 0 -10 -32 -23
-128 -52 -69 -20 -72 -22 -57 -39 9 -10 34 -31 56 -46 39 -27 47 -46 30 -73
-7 -11 -27 1 -93 55 -46 38 -95 76 -108 85 -14 9 -22 20 -18 24 3 4 48 16 100
27 125 27 128 29 79 61 -42 28 -50 44 -29 65 13 13 23 8 116 -60z m-2049 43
c9 -16 4 -23 -29 -46 -46 -32 -48 -26 36 -136 41 -54 42 -57 25 -73 -16 -15
-19 -14 -42 12 -14 15 -42 51 -63 80 l-38 52 -26 -20 c-23 -19 -27 -19 -41 -5
-9 9 -12 18 -6 24 36 34 158 131 166 131 4 0 13 -8 18 -19z m1010 -191 c39
-101 120 -285 196 -446 54 -115 55 -118 54 -203 -1 -47 -4 -117 -8 -156 l-6
-69 -35 44 c-19 25 -56 70 -84 100 -27 30 -63 78 -80 105 l-31 50 -3 -234 c-1
-129 -1 -236 2 -238 2 -2 59 23 126 57 67 34 124 59 126 57 3 -2 -1 -30 -8
-62 -13 -57 -14 -59 -80 -99 -37 -23 -68 -44 -68 -48 0 -4 105 -60 233 -124
127 -64 254 -132 280 -152 50 -38 231 -268 222 -282 -8 -12 -1730 -7 -1730 5
0 19 130 52 245 64 63 6 210 14 325 18 180 5 215 3 248 -10 36 -16 41 -16 77
3 36 18 60 20 265 20 l225 0 9 24 c10 25 30 36 67 36 13 0 24 3 24 8 -1 13
-60 72 -72 72 -7 -1 -131 59 -275 132 l-263 133 -42 -24 c-93 -51 -597 -301
-608 -301 -7 0 -9 8 -5 19 3 10 9 37 13 59 l7 41 240 121 c132 67 244 125 248
129 7 7 -125 91 -144 91 -5 0 -42 -26 -82 -58 -39 -32 -114 -91 -166 -132 -87
-67 -93 -70 -87 -44 4 16 86 206 182 422 175 394 365 835 399 925 10 26 21 44
25 40 4 -4 21 -46 39 -93z m-1249 -5 c0 -8 -15 -32 -34 -52 -62 -71 -74 -124
-33 -160 46 -42 100 -35 130 17 32 54 11 86 -39 60 -19 -11 -27 -11 -36 -2 -9
9 -4 20 22 47 19 19 39 35 44 35 6 -1 33 -21 60 -45 l48 -43 -47 -62 c-26 -34
-62 -68 -80 -77 -46 -22 -100 -10 -142 32 -27 27 -33 41 -33 74 0 54 28 108
79 154 44 40 61 46 61 22z m2512 -52 c40 -44 58 -76 58 -102 0 -52 -62 -80
-101 -45 -16 14 -18 12 -30 -39 -16 -75 -25 -87 -44 -63 -19 25 -19 54 0 86
24 43 18 56 -13 27 -34 -33 -45 -34 -65 -3 -15 23 -15 24 36 59 29 20 68 52
87 72 18 19 37 35 40 35 3 0 18 -12 32 -27z m168 -215 c70 -123 1 -244 -115
-206 -42 14 -105 85 -105 117 0 12 24 32 66 57 37 22 74 49 83 61 24 34 38 28
71 -29z m-2778 -146 c13 -11 15 -19 7 -33 -5 -11 -14 -19 -20 -19 -7 0 -131
81 -178 117 -2 2 1 14 7 28 l12 26 77 -52 c43 -29 86 -59 95 -67z m-137 -46
c35 -15 65 -59 65 -95 0 -30 -40 -132 -54 -137 -10 -4 -223 70 -234 81 -6 6
56 120 74 136 37 32 94 38 149 15z m3050 -13 c19 -7 65 -97 65 -126 0 -16 -35
-37 -61 -37 -5 0 -7 16 -3 38 6 43 -14 79 -40 69 -13 -5 -16 -21 -16 -75 0
-55 -4 -75 -21 -96 -26 -33 -62 -34 -94 -2 -35 35 -59 136 -36 150 20 13 41
-7 41 -39 0 -38 33 -86 48 -70 6 6 12 42 14 82 5 97 38 132 103 106z m-159
-874 c-9 -97 -56 -296 -93 -388 -137 -347 -389 -640 -682 -794 -502 -265
-1086 -219 -1528 119 -94 72 -254 240 -321 337 -72 104 -152 263 -189 377 -41
125 -73 285 -72 357 1 57 1 58 10 18 4 -22 15 -82 24 -134 73 -430 383 -856
776 -1065 182 -97 397 -149 614 -150 403 0 747 147 1022 438 230 245 385 576
418 899 4 37 12 67 17 67 7 0 8 -28 4 -81z m-3094 -410 c14 -29 56 -115 92
-190 152 -315 345 -542 607 -717 507 -338 1193 -377 1748 -98 171 86 286 172
426 317 155 161 273 340 355 537 23 53 45 107 50 120 10 22 36 39 46 29 8 -8
-53 -180 -97 -277 -108 -231 -333 -495 -560 -656 -321 -226 -799 -349 -1189
-305 -608 69 -1099 403 -1398 951 -49 91 -74 152 -106 265 -27 98 -16 109 26
24z m918 -319 c37 -70 -48 -133 -111 -81 l-23 18 43 51 c36 43 47 50 62 41 10
-5 23 -18 29 -29z m-186 -1 c-8 -14 -34 -11 -34 4 0 8 3 17 7 20 9 9 34 -13
27 -24z m1696 11 c0 -6 -7 -13 -15 -16 -27 -11 -16 -23 22 -26 44 -4 54 -25
29 -63 -12 -19 -25 -25 -51 -25 -23 0 -35 5 -35 14 0 9 7 12 20 9 20 -5 50 12
50 28 0 4 -17 9 -37 11 -30 2 -39 8 -41 25 -2 13 5 27 20 37 26 19 38 20 38 6z
m170 -16 c0 -8 -9 -14 -20 -14 -19 0 -27 19 -14 33 10 9 34 -4 34 -19z m-1570
-100 c0 -3 -16 -26 -37 -50 -24 -29 -40 -41 -46 -35 -6 6 -1 21 17 41 14 17
26 36 26 41 0 5 9 9 20 9 11 0 20 -3 20 -6z m1300 -81 c0 -7 -4 -13 -9 -13
-16 0 -61 65 -61 86 1 15 8 10 35 -21 19 -22 35 -46 35 -52z m-1195 5 c14 -6
25 -17 25 -25 0 -16 -14 -17 -40 -1 -15 10 -25 10 -38 2 -25 -16 -21 -39 8
-40 41 -2 43 -3 30 -19 -15 -18 -51 -20 -68 -3 -29 29 -1 98 39 98 10 0 30 -5
44 -12z m1105 -30 l23 -31 -23 -19 c-33 -26 -52 -22 -78 19 -23 35 -23 38 -6
50 30 22 59 15 84 -19z m-980 -14 c0 -5 -48 -92 -57 -103 -2 -3 -8 0 -14 6
-10 10 7 57 33 91 10 12 38 17 38 6z m831 -49 c27 -75 -3 -68 -34 8 -15 34
-15 37 1 37 11 0 23 -16 33 -45z m-695 -45 c18 -51 19 -60 6 -60 -8 0 -20 7
-26 15 -7 9 -30 16 -58 17 -27 1 -48 5 -48 7 0 13 84 89 94 85 6 -2 21 -31 32
-64z m604 18 c0 -67 -11 -76 -54 -43 l-36 27 0 -25 c0 -31 -23 -53 -37 -35
-16 19 -43 76 -43 88 0 19 19 10 33 -16 l14 -27 11 32 c13 38 29 39 59 4 l22
-28 1 33 c0 22 5 32 15 32 11 0 15 -11 15 -42z m-242 7 c1 -5 -6 -11 -16 -13
-17 -3 -19 -9 -14 -49 4 -36 2 -45 -9 -41 -8 2 -15 15 -17 29 -6 51 -13 69
-27 69 -8 0 -15 4 -15 8 0 12 94 9 98 -3z m-208 -9 c0 -8 -4 -26 -10 -40 -8
-23 -7 -26 15 -32 34 -8 32 -24 -2 -24 -49 0 -56 11 -42 63 7 28 17 47 25 47
8 0 14 -6 14 -14z"/>
<path d="M3250 4018 c-18 -20 -18 -23 -4 -31 19 -11 19 -10 28 26 8 33 3 34
-24 5z"/>
<path d="M1753 3949 c4 -13 7 -30 7 -36 0 -17 25 -16 39 1 9 11 5 19 -20 37
l-32 23 6 -25z"/>
<path d="M2425 3017 c-44 -110 -81 -203 -83 -208 -4 -9 157 -93 164 -86 2 2 3
114 2 249 l-3 244 -80 -199z"/>
<path d="M3819 3644 c-11 -14 -10 -19 10 -36 31 -24 50 -10 33 27 -13 29 -24
31 -43 9z"/>
<path d="M3926 3419 l-58 -30 28 -30 c35 -37 77 -39 99 -5 17 26 17 88 0 92
-5 2 -36 -11 -69 -27z"/>
<path d="M985 3219 c-14 -18 -22 -36 -18 -40 5 -5 35 -18 67 -29 69 -23 86
-16 86 36 0 67 -88 89 -135 33z"/>
<path d="M1767 1652 c-33 -35 -34 -42 -3 -42 32 0 51 25 40 51 -9 19 -10 19
-37 -9z"/>
<path d="M3090 1462 c0 -12 23 -32 37 -32 11 0 11 4 1 20 -13 20 -38 28 -38
12z"/>
<path d="M2251 1376 c-9 -10 -8 -15 4 -20 10 -4 15 1 15 14 0 24 -4 25 -19 6z"/>
</g>
</svg>
